<svg xmlns="http://www.w3.org/2000/svg" xmlns:xlink="http://www.w3.org/1999/xlink" viewBox="0 0 326.84 326.85"><defs><style>.cls-1{fill:url(#linear-gradient);}.cls-2{fill:url(#linear-gradient-2);}</style><linearGradient id="linear-gradient" x1="-82.98" y1="-70.59" x2="-276.08" y2="127.84" gradientTransform="translate(339.24 138.61)" gradientUnits="userSpaceOnUse"><stop offset="0" stop-color="#00a651"/><stop offset="1" stop-color="#0079c1"/></linearGradient><linearGradient id="linear-gradient-2" x1="-84.9" y1="-72.45" x2="-277.99" y2="125.98" xlink:href="#linear-gradient"/></defs><g id="Layer_2" data-name="Layer 2"><g id="Layer_1-2" data-name="Layer 1"><path class="cls-1" d="M10.51,208a97.81,97.81,0,0,0,57,49.34c.78.26,1.57.39,2.22.65a87,87,0,0,0,6,14.46,98.57,98.57,0,0,0,181.63-13.15c.26-.79.39-1.57.65-2.22a86.43,86.43,0,0,0,14.45-6A98.57,98.57,0,0,0,259.31,69.49c-.78-.26-1.56-.39-2.22-.65a86.52,86.52,0,0,0-6-14.45A98.56,98.56,0,0,0,69.49,67.53c-.27.79-.39,1.57-.65,2.22a86.18,86.18,0,0,0-14.46,6A98.5,98.5,0,0,0,10.51,208Zm222-143.48h-.13a81.58,81.58,0,0,1,7,21.87,78.33,78.33,0,0,1-3,36.46c-7.94,23.95-8.72,37.76-6.77,48.95a138.11,138.11,0,0,1,19.92-10.41c.26-7.68,2.35-17.45,7-31.9a96.74,96.74,0,0,0,4.95-36.2A77.23,77.23,0,0,1,263,232.1a10.05,10.05,0,0,0-1.69.92H261a74.79,74.79,0,0,1-12.37,4.55l-.26.13h0A76.74,76.74,0,0,1,204,236.4c-21.49-7.16-35.81-11.59-56-7.55a178.84,178.84,0,0,1,12.5,20.7c8.33-.39,19.27,1.3,36.85,7a96.66,96.66,0,0,0,36.19,4.95A77.24,77.24,0,0,1,94.74,263l-.39-.65h0a84.91,84.91,0,0,1-6-17.19A77.25,77.25,0,0,1,90.45,204c8.72-26.43,9.24-40.36,6.25-54.81A150.56,150.56,0,0,1,76.39,160c.65,10.41-.92,21.61-6.12,37.36a96.74,96.74,0,0,0-5,36.2,77.24,77.24,0,0,1-1.43-138.8l.91-.39v-.12a87.21,87.21,0,0,1,21.87-6.78h0a77.33,77.33,0,0,1,36.19,3c23,7.68,39.32,6.51,54.69,3.39A175.9,175.9,0,0,1,167,75.22c-10.28,1-21.87.13-37.49-5a96.74,96.74,0,0,0-36.2-5A77.24,77.24,0,0,1,232.1,63.89ZM192.26,90.45c11.85-2.73,24.35-5.34,40.1-4.56a95.48,95.48,0,0,0-7.94-21.35c-20,.78-33.2,6-47,9Zm41.4,95.69c3.78,11.33,8.46,23.18,7.29,46.09a101.93,101.93,0,0,0,21.35-7.94c-1.17-28.25-8.59-37.36-11.59-49.73Zm-139-45.7c-1.82-6.24-3.9-13.27-6.25-22.13h0v-.26h0l-.13-.13v-.13h0a79.41,79.41,0,0,1-2.34-23.31,102.65,102.65,0,0,0-21.35,8,100.18,100.18,0,0,0,4.56,26c3,9.11,4.81,14.58,6,21.35ZM136,232.1c-13.15,4.3-26,9.64-41.53,8.86a95.48,95.48,0,0,0,7.94,21.35c22-.91,32.42-5.6,41.67-9,1.17-.39,2.34-.91,3.51-1.31l-11.46-19.26Z"/><path class="cls-2" d="M316.59,169.09s-.91,0-2.73-.13v1.3c-.13,0-52.6.52-96.47,45.05A144,144,0,0,0,204.63,230c-5.6-1.56-11.07-3.91-19.14-5.73A174.17,174.17,0,0,1,203.85,202a172.33,172.33,0,0,1,67.7-42.19A177.07,177.07,0,0,1,205.8,118.7,178.86,178.86,0,0,1,163,51.65a171.24,171.24,0,0,1-17.31,38l-19.66-4c25.78-38.28,25.65-75.12,25.65-75.25h2.08a10.48,10.48,0,0,0-.13-1.83l18.75-.39c0,.13,1.17,52.73,46.48,97.26s97.77,45.05,97.91,45.05ZM138.49,100.6a149,149,0,0,1-17.06,20.18c-23.56,24-49.47,32.68-70.3,39.32,11.2,3.78,23.82,13,36.71,21l-3.77,19.66C45.66,174.56,9,170.52,8.82,170.52V151.77c.13,0,1,0,2.73.13l-.13-3c.13,0,52.6,3.25,96.6-41.41a131.39,131.39,0,0,0,10.81-12.1c6.51,2.08,12.89,4.16,19.66,5.2Zm-36.85,90.1a137,137,0,0,1,18.1,15.36,178,178,0,0,1,42.44,66,177.19,177.19,0,0,1,16.67-37.63l3.9,7.16,13.41.52c-22.65,36.46-22.39,70.3-22.39,70.44l-2.21-.14c.26,2.35.26,3.65.26,3.65l-18.62.39c0-.13-1.3-52.6-46.48-97.25-4.17-3.91-6.25-6-10.41-9.38,1.43-6.77,4.42-12,5.33-19.14Z"/></g></g></svg>