<svg xmlns="http://www.w3.org/2000/svg" viewBox="0 0 1235.93 419.71"><defs><style>.cls-1{fill:#417ec1;}.cls-2{fill:none;stroke:#417ec1;stroke-miterlimit:10;stroke-width:6px;}.cls-3{font-size:186.86px;}.cls-3,.cls-4{font-family:Raleway-Medium, Raleway;font-weight:500;}.cls-4{font-size:112.57px;fill:#434343;}</style></defs><g id="Layer_2" data-name="Layer 2"><g id="Layer_1-2" data-name="Layer 1"><path class="cls-1" d="M80.6,249.11a97.82,97.82,0,0,0,57,49.35c.78.26,1.56.39,2.21.65a86.08,86.08,0,0,0,6,14.45,98.57,98.57,0,0,0,181.62-13.15c.26-.78.39-1.56.65-2.21a87.78,87.78,0,0,0,14.45-6A98.57,98.57,0,0,0,329.4,110.58c-.78-.26-1.56-.39-2.21-.65a86.57,86.57,0,0,0-6-14.45,98.56,98.56,0,0,0-181.62,13.15c-.26.78-.39,1.56-.65,2.21a87,87,0,0,0-14.46,6A98.51,98.51,0,0,0,80.6,249.11Zm222-143.48h-.13a81.54,81.54,0,0,1,7,21.88,78.43,78.43,0,0,1-3,36.45c-7.95,24-8.73,37.76-6.77,49a136.31,136.31,0,0,1,19.92-10.42c.26-7.68,2.34-17.45,7-31.9a96.66,96.66,0,0,0,4.94-36.19,77.24,77.24,0,0,1,1.44,138.79,10.83,10.83,0,0,0-1.7.91h-.26a75.89,75.89,0,0,1-12.36,4.56l-.26.13h0a76.85,76.85,0,0,1-44.4-1.31c-21.48-7.16-35.8-11.58-56-7.55a180.78,180.78,0,0,1,12.49,20.7c8.34-.39,19.27,1.31,36.85,7a96.66,96.66,0,0,0,36.19,4.95,77.24,77.24,0,0,1-138.79,1.44l-.38-.66h0a83.37,83.37,0,0,1-6-17.18,77.19,77.19,0,0,1,2.08-41.15c8.72-26.43,9.24-40.36,6.25-54.81a148.81,148.81,0,0,1-20.31,10.81c.65,10.41-.91,21.61-6.12,37.36a96.74,96.74,0,0,0-5,36.2A77.24,77.24,0,0,1,134,135.84l.91-.39v-.13a87.24,87.24,0,0,1,21.87-6.77h0a77.51,77.51,0,0,1,36.2,3c23,7.68,39.31,6.51,54.68,3.39a175.69,175.69,0,0,1-10.55-18.62c-10.28,1-21.87.13-37.49-5a96.74,96.74,0,0,0-36.2-4.94A77.23,77.23,0,0,1,302.19,105Zm-40.23,25.91c11.85-2.73,24.35-5.33,40.1-4.55a95.2,95.2,0,0,0-7.94-21.36c-20.05.79-33.2,6-47,9Zm41.4,95.7c3.78,11.33,8.47,23.17,7.29,46.09a102.75,102.75,0,0,0,21.36-7.94c-1.18-28.26-8.6-37.37-11.59-49.74Zm-139-45.7c-1.83-6.25-3.91-13.28-6.25-22.14h0v-.25h0l-.13-.14v-.13h0a79,79,0,0,1-2.35-23.3,102.13,102.13,0,0,0-21.35,7.94,100.11,100.11,0,0,0,4.56,26c3,9.11,4.81,14.58,6,21.35Zm41.4,91.66c-13.15,4.29-26,9.63-41.53,8.85a95,95,0,0,0,7.94,21.35c22-.91,32.42-5.59,41.66-9,1.17-.39,2.34-.91,3.51-1.3l-11.45-19.27Z"/><path class="cls-1" d="M386.68,210.18s-.9,0-2.73-.13v1.3c-.13,0-52.6.53-96.47,45a144.08,144.08,0,0,0-12.76,14.72c-5.6-1.57-11.07-3.91-19.14-5.73a175.08,175.08,0,0,1,18.36-22.27,172.41,172.41,0,0,1,67.7-42.18,177.07,177.07,0,0,1-65.75-41.14,178.93,178.93,0,0,1-42.83-67.06,171.78,171.78,0,0,1-17.32,38l-19.66-4c25.78-38.28,25.65-75.13,25.65-75.26h2.08a10.27,10.27,0,0,0-.13-1.82l18.75-.39c0,.13,1.17,52.73,46.48,97.26s97.77,45,97.91,45ZM208.58,141.7a148.87,148.87,0,0,1-17.06,20.18c-23.56,24-49.47,32.68-70.3,39.32,11.2,3.77,23.83,13,36.71,21l-3.77,19.66C115.75,215.65,79,211.61,78.91,211.61V192.87c.13,0,1,0,2.73.12l-.13-3c.13,0,52.6,3.26,96.6-41.4a130,130,0,0,0,10.81-12.11c6.51,2.08,12.89,4.17,19.66,5.21Zm-36.84,90.1a136.15,136.15,0,0,1,18.09,15.36,177.82,177.82,0,0,1,42.44,66,177.19,177.19,0,0,1,16.67-37.63l3.91,7.16,13.41.52c-22.66,36.46-22.4,70.31-22.4,70.44l-2.21-.13c.26,2.34.26,3.65.26,3.65l-18.62.39c0-.14-1.3-52.61-46.48-97.26-4.16-3.91-6.24-6-10.41-9.38,1.43-6.77,4.42-12,5.34-19.13Z"/><rect class="cls-2" x="3" y="3" width="1229.93" height="413.71" rx="206.86"/><text class="cls-3" transform="translate(419.06 222.58)">Mideast</text><text class="cls-4" transform="translate(418.83 318.3)">Arabic</text></g></g></svg>